PathFileType	4	(X/Y/Z)	C:/Users/beibeiliu/ov580/test_trc\sequence.28_training_dense_left.trc
DataRate	CameraRate	NumFrames	NumMarkers	Units	OrigDataRate	OrigDataStartFrame	OrigNumFrames
120	120	22	19	mm	120	56	110
Frame#	Time	ThumbCMC			ThumbMCP			ThumbIP			ThumbTip			IndexMCP			IndexPIP			IndexTip			MiddleMCP			MiddlePIP			MiddleTip			RingMCP			RingPIP			RingTip			PinkyMCP			PinkyPIP			PinkyTip			BackHand1			BackHand2			BackHand3	
		X0	Y0	Z0	X1	Y1	Z1	X2	Y2	Z2	X3	Y3	Z3	X4	Y4	Z4	X5	Y5	Z5	X6	Y6	Z6	X7	Y7	Z7	X8	Y8	Z8	X9	Y9	Z9	X10	Y10	Z10	X11	Y11	Z11	X12	Y12	Z12	X13	Y13	Z13	X14	Y14	Z14	X15	Y15	Z15	X16	Y16	Z16	X17	Y17	Z17	X18	Y18	Z18	
55	0.458333	-182.951	49.812	22.7533	-172.355	73.8104	4.49637	-158.311	83.6101	-9.11837	-148.477	98.0517	-23.707	-145.543	51.0837	-26.4265	-132.453	74.3985	-32.5061	-122.874	95.8454	-32.9776	-127.826	50.1747	-21.3808	-116.459	74.8827	-27.8564	-104.787	95.8324	-23.1332	-117.537	43.8117	-6.59474	-103.464	71.1683	-10.508	-102.016	90.3873	-9.59826	-104.999	39.7245	11.0423	-101.644	59.5809	5.20554	-106.46	86.2527	10.3739	-145.715	14.7258	21.9027	-160.193	10.3291	41.5048	-174.236	18.0478	19.6115	
56	0.466667	-183.684	49.2589	17.2462	-174.874	69.3265	-3.6241	-164.159	77.9221	-22.8052	-155.482	87.1135	-36.5473	-150.3	42.4776	-34.6495	-140.141	61.8935	-45.0622	-131.465	81.3674	-51.1219	-130.235	41.4936	-29.6488	-118.434	63.6894	-39.3668	-107.122	87.8262	-41.7569	-119.204	37.4424	-12.8189	-106.946	63.1653	-23.5605	-107.589	85.6277	-27.7314	-109.587	34.9209	4.38695	-103.371	55.0326	-5.75574	-110.89	80.9871	-4.27566	-140.143	12.5819	20.6647	-156.4	12.0381	47.5519	-172.902	19.5655	17.8354	
57	0.475	-186.799	48.3797	19.8781	-177.752	60.5621	-5.88111	-165.17	62.4488	-28.9775	-157.803	67.3396	-45.3913	-157.624	28.3707	-37.1424	-144.728	41.9293	-51.0967	-136.359	61.254	-62.8085	-137.01	24.5637	-31.3179	-127.126	39.5206	-45.7298	-114.265	66.3872	-57.6788	-124.233	26.2361	-20.0128	-115.646	44.1075	-34.6368	-113.274	63.7233	-40.4229	-113.027	26.6007	0.656946	-106.334	47.281	-13.8377	-113.127	68.1951	-18.443	-145.996	12.5954	26.1983	-162.341	16.5353	47.6125	-177.12	17.0944	25.1439	
58	0.483333	-195.162	47.7239	18.4665	-182.949	51.5341	-8.83153	-176.251	49.7806	-29.9545	-167.492	47.4136	-51.0377	-171.588	9.32889	-29.7984	-159.097	17.8523	-49.6033	-145.982	36.0409	-67.7625	-151.194	5.30011	-25.1819	-138.776	18.3112	-50.0747	-126.996	36.1409	-66.4701	-136.593	7.01073	-14.0785	-125.557	21.6294	-35.8208	-122.933	38.3224	-46.9026	-122.41	11.6753	0.908859	-118.01	25.0068	-17.6793	-123.39	49.5295	-25.9089	-158.643	6.67134	27.7677	-166.432	18.9828	53.9717	-184.439	14.369	30.4307	
59	0.491667	-202.885	45.1965	21.276	-193.291	43.3716	-8.12318	-188.735	37.264	-29.4375	-181.866	30.3317	-49.349	-192.149	-2.71937	-28.3783	-182.605	3.62914	-50.896	-169.517	12.9919	-63.964	-170.518	-11.2568	-23.5479	-163.587	-6.00552	-45.7814	-147.043	7.53875	-65.3636	-154.513	-9.50661	-14.4245	-147.29	0.647888	-37.8021	-138.569	17.4145	-53.5674	-140.679	-4.29089	3.10298	-133.386	7.59203	-21.4122	-137.375	25.0801	-29.2428	-167.799	0.371626	37.4555	-173.588	13.6388	57.5479	-199.315	12.4932	35.2708	
60	0.5	-209.725	44.5121	25.0345	-203.668	40.5161	-4.32798	-203.145	31.8707	-30.5835	-200.102	25.0126	-46.0399	-212.597	-4.8289	-17.5419	-203.918	-4.24725	-43.0086	-189.425	6.24912	-65.4973	-197.628	-15.7154	-20.5162	-188.195	-14.7752	-42.8319	-176.737	-3.33369	-70.473	-176.81	-18.7415	-12.3912	-167.922	-13.2642	-36.9799	-163.994	0.0718256	-53.8059	-161.348	-15.4961	0.189448	-153.115	-9.18653	-21.6867	-151.973	8.67296	-36.102	-184.505	-6.13717	34.4005	-183.612	12.2322	58.9074	-204.435	11.1889	40.1295	
61	0.508333	-213.452	49.6985	26.1255	-210.091	48.9955	-4.09439	-211.999	43.7408	-26.8918	-213.28	36.9368	-48.5678	-229.377	3.63659	-16.0515	-223.968	4.48747	-43.0271	-215.721	14.0005	-65.1591	-217.609	-8.37971	-22.4812	-210.07	-7.63772	-47.6133	-200.618	0.115314	-71.6717	-196.677	-16.9938	-13.4746	-194.139	-12.1467	-39.7154	-184.109	-2.49363	-59.4916	-179.724	-20.4227	-5.24898	-176.711	-13.2998	-27.7107	-174.412	3.9525	-40.5268	-197.734	-6.11433	32.4086	-192.496	9.11792	54.6899	-219.172	19.029	43.2109	
62	0.516667	-211.386	58.0438	28.7462	-210.766	57.2962	-4.67646	-212.283	55.1128	-23.5812	-216.733	50.3735	-47.1107	-243.141	23.1627	-19.8283	-239.506	24.4326	-42.1777	-226.625	28.5607	-66.355	-234.665	8.30455	-22.3544	-230.252	11.4202	-50.4996	-218.372	12.2186	-72.8183	-217.889	-5.61147	-19.4127	-216.319	-0.22959	-41.81	-205.342	7.22436	-64.062	-203.637	-13.8723	-8.64239	-199.827	-9.74304	-31.2054	-193.307	2.41191	-49.8376	-213.707	3.16834	34.5811	-204.066	13.5206	53.3489	-224.997	27.6861	41.5569	
63	0.525	-206.758	62.9854	29.4136	-204.284	66.5927	-1.59476	-208.08	66.2422	-23.1365	-211.592	65.1505	-45.3916	-247.156	48.6535	-19.4854	-241.84	49.7323	-44.9314	-232.198	52.6542	-66.8927	-245.037	30.1187	-26.2495	-240.695	33.9136	-49.2651	-228.812	37.6592	-74.4613	-235.266	13.6559	-19.7599	-230.22	19.358	-45.9564	-220.441	21.8603	-64.9743	-226.002	0.835761	-10.7831	-221.156	1.64744	-33.8069	-215.873	13.5004	-53.115	-228.939	15.3671	29.6188	-215.369	13.0477	53.0523	-232.85	40.6796	40.0219	
64	0.533333	-201.752	64.6635	29.6708	-192.579	70.0791	1.12633	-198.008	75.8009	-26.1823	-200.003	74.2722	-43.4057	-240.958	70.8909	-21.7741	-234.367	72.6508	-45.9016	-225.334	75.0535	-63.3263	-246.329	56.657	-26.4694	-238.857	56.501	-52.9446	-227.258	55.6068	-76.4018	-243.889	32.8997	-25.7517	-236.728	37.6055	-47.2039	-225.338	41.5662	-67.2469	-238.686	19.6065	-16.4513	-234.702	20.2584	-37.8464	-227.779	22.1214	-55.8662	-238.814	28.3365	26.5801	-225.403	23.9086	48.3855	-229.511	53.8575	38.6571	
65	0.541667	-191.587	65.7451	29.1781	-184.779	71.0249	-2.90273	-182.75	73.6353	-21.4126	-184.866	78.6618	-42.9515	-226.021	88.8798	-16.8731	-218.931	86.7282	-44.2042	-209.215	85.5302	-66.5761	-235.571	76.341	-27.2825	-229.473	72.6568	-52.9954	-220.669	68.5945	-74.2325	-239.272	57.1156	-27.1099	-231.416	56.7502	-50.3268	-221.992	54.4732	-68.825	-241.718	38.7683	-22.1277	-237.013	35.7379	-40.466	-227.95	44.1536	-57.8887	-238.509	43.6792	25.449	-233.601	34.6956	44.9002	-225.147	62.4689	39.1673	
66	0.55	-179.714	65.125	28.4894	-169.008	67.7669	-0.00484954	-169.302	73.1064	-23.4497	-167.019	77.788	-44.0152	-204.755	99.2076	-16.4408	-197.842	96.9552	-42.4662	-187.006	90.9329	-64.376	-219.713	87.9902	-29.263	-211.048	88.4638	-49.3063	-200.633	77.8187	-76.2039	-228.826	71.0849	-29.2288	-222.295	68.4105	-51.6603	-210.392	66.673	-66.8971	-238.776	53.8136	-20.8668	-229.666	54.3905	-40.8334	-220.439	51.1907	-59.3807	-233.22	59.6704	24.3186	-229.303	46.737	41.8589	-213.756	72.214	38.9081	
67	0.558333	-168.077	63.4585	28.6489	-157.781	61.6611	0.232277	-152.947	68.6119	-23.8593	-155.689	72.572	-44.8568	-183.973	100.398	-18.5002	-174.288	96.7936	-41.5872	-164.153	87.8329	-62.2343	-199.017	93.0535	-28.9978	-189.656	88.7734	-53.3862	-182.172	77.9809	-74.7015	-212.389	81.0488	-30.4677	-201.724	75.1456	-54.0639	-190.359	68.7311	-69.3603	-225.42	67.2981	-28.1089	-216.017	63.3204	-46.502	-200.557	58.0685	-61.0729	-223.421	72.2679	21.4967	-220.479	58.7589	39.1361	-199.747	78.201	36.3662	
68	0.566667	-156.367	57.9475	28.7418	-144.442	54.5545	-0.373844	-142.423	59.5032	-21.0754	-138.6	62.6869	-44.3109	-158.86	97.8168	-22.3719	-151.644	89.2686	-47.4142	-148.204	75.4301	-63.5796	-178.023	95.5612	-31.4002	-171.241	87.2493	-53.317	-161.249	72.3454	-73.6219	-192.677	86.4659	-30.4644	-184.305	76.4009	-53.4858	-177.49	64.4243	-68.6298	-211.989	75.3252	-29.4824	-199.245	69.707	-47.1751	-185.189	60.6665	-58.8868	-206.112	82.4053	16.2454	-211.759	68.1472	38.5925	-184.567	80.892	32.6984	
69	0.575	-146.68	53.3423	29.6667	-132.742	47.3568	-0.364209	-126.555	48.3953	-22.2132	-124.37	47.4239	-42.878	-133.572	86.8168	-24.9429	-132.296	72.9019	-48.4885	-132.409	55.318	-62.6654	-155.873	87.3864	-37.1412	-151.869	76.1836	-56.5215	-146.515	51.9674	-74.0822	-175.887	82.0755	-35.2527	-169.575	69.1836	-54.542	-159.721	49.7165	-64.6089	-193.268	77.7172	-32.3203	-182.445	66.9535	-47.8716	-174.067	52.0215	-57.5841	-189.246	85.7243	16.9008	-195.917	72.5445	39.5221	-165.539	81.0258	31.6926	
70	0.583333	-132.902	47.8369	31.6958	-126.394	36.5861	5.23623	-118.848	31.2636	-18.3617	-117.492	28.5805	-40.0756	-119.409	70.5086	-28.2835	-118.07	55.2084	-45.5207	-127.968	28.7495	-58.439	-138.923	73.5356	-36.4162	-140.548	55.7827	-56.7014	-139.684	27.588	-63.6045	-162.676	72.9902	-36.9317	-155.952	48.3197	-53.1969	-154.948	22.2914	-52.1133	-181.613	70.1438	-34.432	-177.87	53.7041	-46.3298	-162.669	31.2944	-45.2305	-172.573	86.5749	10.7586	-175.412	77.0254	38.0087	-149.129	78.8373	29.6473	
71	0.591667	-127.529	44.9592	32.0351	-122.205	23.1643	15.5909	-119.834	15.2088	-8.10293	-117.106	3.41723	-27.7963	-121.371	51.0303	-29.9774	-122.461	27.1029	-42.7588	-133.51	1.99872	-41.9439	-136.826	54.6301	-37.5487	-138.392	28.3714	-49.6646	-147.657	-1.99929	-40.3761	-156.793	51.9252	-37.2467	-157.918	29.1702	-42.9343	-158.987	3.41944	-24.665	-178.589	56.8953	-28.1377	-173.073	32.0891	-35.5123	-161.084	12.9701	-21.2907	-163.596	80.5165	5.35388	-168.521	80.6013	33.4077	-137.65	75.4867	25.1635	
72	0.6	-129.187	43.2642	41.431	-123.873	17.7742	25.8938	-116.613	1.33222	9.02506	-116.857	-11.6433	-8.23277	-122.74	32.8472	-24.7066	-125.306	7.42031	-30.4849	-132.465	-15.394	-18.2973	-142.526	30.0237	-33.1821	-146.361	0.770737	-31.8696	-152.091	-16.4289	-9.26725	-161.69	29.1124	-29.1491	-158.588	1.99402	-22.4723	-156.265	-7.00733	4.56261	-177.344	33.894	-21.412	-174.258	9.13232	-16.8954	-163.259	0.816029	6.48908	-169.264	70.5307	4.95852	-171.191	77.1902	33.3244	-144.233	71.2077	23.5137	
73	0.608333	-135.553	46.4852	44.3248	-125.394	18.5035	32.7435	-113.529	-1.44839	22.0334	-105.522	-17.1171	17.4001	-121.361	22.2237	-13.3426	-116.102	-6.24622	-10.52	-126.484	-26.1252	8.17262	-139.093	12.8904	-19.5413	-138.04	-14.3906	-12.1385	-143.637	-23.8546	21.2185	-158.246	8.96105	-16.0584	-150.435	-14.3458	1.76151	-150.929	-11.7589	29.175	-175.386	4.96779	-9.15993	-168.07	-11.0099	6.95367	-153.578	-0.61167	27.3419	-173.001	52.0184	3.16335	-184.359	63.2875	24.613	-153.677	63.5115	18.8716	
74	0.616667	-143.54	49.6325	41.2461	-122.327	25.2588	41.9426	-107.234	6.4664	34.1512	-93.4456	-4.99933	34.4434	-120.154	17.4136	-5.97993	-109.995	-6.22293	3.23953	-109.069	-20.1842	27.5328	-132.83	1.34286	-9.64532	-125.343	-19.4709	6.55691	-124.603	-22.3827	36.6855	-150.87	-3.06057	-4.35537	-139.243	-22.1132	18.9321	-138.472	-14.5949	39.9829	-169.896	-11.2187	4.55827	-155.547	-18.3457	18.8533	-143.751	-5.381	38.4358	-182.776	34.4031	6.50777	-190.681	53.6172	23.7079	-162.841	57.6708	16.3219	
75	0.625	-146.717	55.3809	40.233	-124.47	34.4341	45.2391	-104.634	25.1139	44.171	-87.717	15.0825	45.6121	-117.55	19.6161	-1.23627	-101.251	2.21552	15.8291	-95.2391	-4.01344	39.7571	-125.093	3.5659	-0.758357	-111.423	-13.067	18.5671	-110.696	-12.6336	51.6626	-141.112	-10.0018	7.25451	-123.215	-15.2874	27.3591	-124.115	-7.05748	55.7477	-157.423	-14.315	14.443	-142.41	-20.4296	31.7103	-128.821	-4.21076	47.0868	-176.17	24.0837	5.12211	-196.021	41.9264	23.6911	-173.015	51.804	14.3195	
76	0.633333	-150.978	60.8361	37.7888	-126.007	50.3052	47.9613	-105.041	40.1684	46.2255	-84.7371	39.9622	50.4842	-112.8	34.7242	3.68312	-92.0263	23.7474	20.8291	-86.9271	15.4	44.1485	-115.038	10.6547	7.34274	-99.2501	1.03525	27.4303	-93.6644	4.27678	55.1906	-127.867	-1.08768	13.7158	-111.075	-6.22659	38.1756	-109.908	2.63742	59.3061	-142.64	-14.9106	24.52	-127.879	-13.2971	39.2376	-115.034	3.9161	57.1804	-175.101	19.0097	11.5077	-195.305	27.3998	21.0764	-173.025	45.5449	10.3809	
